<svg xmlns="http://www.w3.org/2000/svg" width="172.228" height="38.397" viewBox="0 0 172.228 38.397">
  <g id="Group_1" data-name="Group 1" transform="translate(-214.338 -222.877)">
    <rect id="Rectangle_20" data-name="Rectangle 20" width="172.227" height="6.762" transform="translate(214.338 254.512)" fill="#fda41c"/>
    <rect id="Rectangle_21" data-name="Rectangle 21" width="12.699" height="7.918" transform="translate(229.318 242.972)" fill="#fda41c"/>
    <rect id="Rectangle_22" data-name="Rectangle 22" width="12.958" height="8.073" transform="translate(214.338 223.204)" fill="#fda41c"/>
    <rect id="Rectangle_23" data-name="Rectangle 23" width="27.68" height="7.814" transform="translate(214.338 233.036)" fill="#707070"/>
    <rect id="Rectangle_24" data-name="Rectangle 24" width="13.01" height="8.073" transform="translate(229.007 223.204)" fill="#707070"/>
    <rect id="Rectangle_25" data-name="Rectangle 25" width="12.958" height="7.918" transform="translate(214.338 242.972)" fill="#707070"/>
    <path id="Path_1" data-name="Path 1" d="M318.527,225.244h-9.286v-1.973h20.786v1.973H320.7V250.89h-2.174Zm14.345,16.1-3.517,9.548h-2.173l10.156-27.618h2.529l10.59,27.618h-2.331l-3.6-9.548Zm10.946-1.973c-3.082-8.207-4.663-12.152-5.216-14.006h-.04c-.672,2.091-2.45,6.983-4.939,14.006Zm10.948,4.1c.83,3.669,3.28,5.839,7.824,5.839,5.058,0,6.994-2.525,6.994-5.524,0-3.117-1.383-5.05-7.469-6.549-5.848-1.46-8.377-3.354-8.377-7.339,0-3.63,2.648-7.023,8.575-7.023,6.085,0,8.654,3.709,9.01,7.062h-2.213c-.632-2.959-2.569-5.089-6.916-5.089-3.991,0-6.165,1.854-6.165,4.932,0,3.038,1.818,4.222,6.916,5.484,7.785,1.933,8.931,5.05,8.931,8.364,0,4.064-2.964,7.575-9.365,7.575-6.916,0-9.445-4.024-9.958-7.733Zm22.17-20.2h2.134v12.034h16.6V223.271H397.8V250.89h-2.134V237.278h-16.6V250.89h-2.134Zm30.07,0V240c0,7.339,4.149,9.232,8.061,9.232,4.623,0,8.061-1.933,8.061-9.232V223.271H425.3v16.611c0,8.641-4.584,11.323-10.314,11.323-5.453,0-10.2-2.959-10.2-10.968V223.271Zm25.055,0H441.7c5.295,0,8.14,2.8,8.14,6.786a5.969,5.969,0,0,1-4.268,6.036,6.985,6.985,0,0,1,5.255,6.826c0,5.523-4.149,7.97-8.97,7.97h-9.8Zm8.931,11.876c4.781,0,6.6-1.775,6.6-4.971,0-2.722-1.9-4.932-5.769-4.932h-7.666v9.9Zm-6.836,13.77h7.785c3.636,0,6.678-1.815,6.678-5.879,0-3.511-2.252-5.918-7.824-5.918h-6.639Z" transform="translate(-65.223 0)" fill="#707070"/>
  </g>
</svg>
